<?xml version="1.0" encoding="UTF-8" standalone="no"?>
<!-- Created with Inkscape (http://www.inkscape.org/) -->

<svg
   xmlns:dc="http://purl.org/dc/elements/1.1/"
   xmlns:cc="http://creativecommons.org/ns#"
   xmlns:rdf="http://www.w3.org/1999/02/22-rdf-syntax-ns#"
   xmlns:svg="http://www.w3.org/2000/svg"
   xmlns="http://www.w3.org/2000/svg"
   xmlns:xlink="http://www.w3.org/1999/xlink"
   xmlns:sodipodi="http://sodipodi.sourceforge.net/DTD/sodipodi-0.dtd"
   xmlns:inkscape="http://www.inkscape.org/namespaces/inkscape"
   width="210mm"
   height="297mm"
   viewBox="0 0 744.09448819 1052.3622047"
   id="svg2"
   version="1.1"
   inkscape:version="0.91 r13725"
   sodipodi:docname="transition.svg">
  <defs
     id="defs4">
    <linearGradient
       inkscape:collect="always"
       id="linearGradient4539">
      <stop
         style="stop-color:#000000;stop-opacity:1"
         offset="0"
         id="stop4541" />
      <stop
         style="stop-color:#ffffff;stop-opacity:1"
         offset="1"
         id="stop4543" />
    </linearGradient>
    <linearGradient
       inkscape:collect="always"
       xlink:href="#linearGradient4539"
       id="linearGradient4545"
       x1="558.42358"
       y1="2269.988"
       x2="765.20502"
       y2="2144.7292"
       gradientUnits="userSpaceOnUse"
       spreadMethod="repeat" />
  </defs>
  <sodipodi:namedview
     id="base"
     pagecolor="#ffffff"
     bordercolor="#666666"
     borderopacity="1.0"
     inkscape:pageopacity="0.0"
     inkscape:pageshadow="2"
     inkscape:zoom="0.49497475"
     inkscape:cx="981.15523"
     inkscape:cy="-1023.4288"
     inkscape:document-units="px"
     inkscape:current-layer="layer1"
     showgrid="false"
     inkscape:window-width="1811"
     inkscape:window-height="1057"
     inkscape:window-x="-8"
     inkscape:window-y="-8"
     inkscape:window-maximized="1" />
  <metadata
     id="metadata7">
    <rdf:RDF>
      <cc:Work
         rdf:about="">
        <dc:format>image/svg+xml</dc:format>
        <dc:type
           rdf:resource="http://purl.org/dc/dcmitype/StillImage" />
        <dc:title></dc:title>
      </cc:Work>
    </rdf:RDF>
  </metadata>
  <g
     inkscape:label="Layer 1"
     inkscape:groupmode="layer"
     id="layer1">
    <rect
       style="opacity:1;fill:url(#linearGradient4545);fill-opacity:1;fill-rule:nonzero;stroke:none;stroke-width:10;stroke-linecap:butt;stroke-linejoin:miter;stroke-miterlimit:4;stroke-dasharray:none;stroke-dashoffset:0;stroke-opacity:0.59706936"
       id="rect4506"
       width="1920"
       height="1080"
       x="146.28137"
       y="1499.6732"
       inkscape:export-xdpi="90"
       inkscape:export-ydpi="90" />
    <path
       inkscape:connector-curvature="0"
       id="path4509"
       style="font-style:normal;font-variant:normal;font-weight:bold;font-stretch:normal;font-size:medium;line-height:125%;font-family:sans-serif;-inkscape-font-specification:'sans-serif Bold';letter-spacing:57.39147949px;word-spacing:0px;writing-mode:lr-tb;fill:#f9f9f9;fill-opacity:1;stroke:none;stroke-width:1px;stroke-linecap:butt;stroke-linejoin:miter;stroke-opacity:1"
       d="m 212.9023,1957.9017 154.2396,0 0,32.6189 -55.4859,0 0,134.7355 -43.1557,0 0,-134.7355 -55.598,0 0,-32.6189 z"
       inkscape:export-xdpi="90"
       inkscape:export-ydpi="90" />
    <path
       inkscape:connector-curvature="0"
       id="path4511"
       style="font-style:normal;font-variant:normal;font-weight:bold;font-stretch:normal;font-size:medium;line-height:125%;font-family:sans-serif;-inkscape-font-specification:'sans-serif Bold';letter-spacing:57.39147949px;word-spacing:0px;writing-mode:lr-tb;fill:#ececec;fill-opacity:1;stroke:none;stroke-width:1px;stroke-linecap:butt;stroke-linejoin:miter;stroke-opacity:1"
       d="m 513.08664,2033.9005 q -5.26836,-2.466 -10.53672,-3.5869 -5.15627,-1.2331 -10.42462,-1.2331 -15.4688,0 -23.87576,9.9763 -8.29486,9.8642 -8.29486,28.3595 l 0,57.8398 -40.1292,0 0,-125.5439 40.1292,0 0,20.6251 q 7.7344,-12.3302 17.71065,-17.9348 10.08835,-5.7168 24.09994,-5.7168 2.01767,0 4.37162,0.2242 2.35394,0.1121 6.83765,0.6726 l 0.1121,36.318 z"
       inkscape:export-xdpi="90"
       inkscape:export-ydpi="90" />
    <path
       inkscape:connector-curvature="0"
       id="path4513"
       style="font-style:normal;font-variant:normal;font-weight:bold;font-stretch:normal;font-size:medium;line-height:125%;font-family:sans-serif;-inkscape-font-specification:'sans-serif Bold';letter-spacing:57.39147949px;word-spacing:0px;writing-mode:lr-tb;fill:#cccccc;fill-opacity:1;stroke:none;stroke-width:1px;stroke-linecap:butt;stroke-linejoin:miter;stroke-opacity:1"
       d="m 646.92535,2068.7614 q -12.55439,0 -18.94367,4.2595 -6.2772,4.2595 -6.2772,12.5544 0,7.6223 5.04418,11.9939 5.15626,4.2595 14.23577,4.2595 11.32137,0 19.05577,-8.0707 7.7344,-8.1827 7.7344,-20.4008 l 0,-4.5958 -20.84925,0 z m 61.31472,-15.1326 0,71.6273 -40.46547,0 0,-18.6074 q -8.07068,11.4335 -18.15902,16.7018 -10.08835,5.1563 -24.54831,5.1563 -19.50414,0 -31.72225,-11.3214 -12.10601,-11.4334 -12.10601,-29.5925 0,-22.0822 15.13252,-32.3948 15.24461,-10.3125 47.7515,-10.3125 l 23.65157,0 0,-3.1386 q 0,-9.5279 -7.51022,-13.8995 -7.51021,-4.4837 -23.42738,-4.4837 -12.89066,0 -23.98784,2.5781 -11.09718,2.5782 -20.62506,7.7344 l 0,-30.6013 q 12.89066,-3.1386 25.89342,-4.7079 13.00275,-1.6814 26.00551,-1.6814 33.9641,0 48.98453,13.4512 15.13251,13.339 15.13251,43.4919 z"
       inkscape:export-xdpi="90"
       inkscape:export-ydpi="90" />
    <path
       inkscape:connector-curvature="0"
       id="path4515"
       style="font-style:normal;font-variant:normal;font-weight:bold;font-stretch:normal;font-size:medium;line-height:125%;font-family:sans-serif;-inkscape-font-specification:'sans-serif Bold';letter-spacing:57.39147949px;word-spacing:0px;writing-mode:lr-tb;fill:#b3b3b3;fill-opacity:1;stroke:none;stroke-width:1px;stroke-linecap:butt;stroke-linejoin:miter;stroke-opacity:1"
       d="m 929.39902,2048.8089 0,76.4472 -40.35339,0 0,-12.4423 0,-46.0701 q 0,-16.2534 -0.78465,-22.4185 -0.67255,-6.1652 -2.46604,-9.0796 -2.35394,-3.9232 -6.38928,-6.053 -4.03534,-2.2418 -9.19161,-2.2418 -12.55438,0 -19.72832,9.752 -7.17393,9.64 -7.17393,26.7902 l 0,61.7631 -40.1292,0 0,-125.5439 40.1292,0 0,18.3833 q 9.07951,-10.9851 19.27995,-16.1414 10.20044,-5.2684 22.53064,-5.2684 21.74599,0 32.95526,13.3391 11.32137,13.339 11.32137,38.7841 z"
       inkscape:export-xdpi="90"
       inkscape:export-ydpi="90" />
    <path
       inkscape:connector-curvature="0"
       id="path4517"
       style="font-style:normal;font-variant:normal;font-weight:bold;font-stretch:normal;font-size:medium;line-height:125%;font-family:sans-serif;-inkscape-font-specification:'sans-serif Bold';letter-spacing:57.39147949px;word-spacing:0px;writing-mode:lr-tb;fill:#999999;fill-opacity:1;stroke:none;stroke-width:1px;stroke-linecap:butt;stroke-linejoin:miter;stroke-opacity:1"
       d="m 1122.3106,2003.6355 0,30.4892 q -12.8906,-5.3804 -24.8846,-8.0707 -11.9939,-2.6902 -22.6427,-2.6902 -11.4335,0 -17.0381,2.9144 -5.4925,2.8023 -5.4925,8.7433 0,4.8199 4.1474,7.3981 4.2595,2.5781 15.1325,3.8111 l 7.0618,1.0089 q 30.8256,3.9232 41.4744,12.8906 10.6488,8.9674 10.6488,28.1353 0,20.0646 -14.7963,30.1529 -14.7962,10.0884 -44.1645,10.0884 -12.4423,0 -25.7813,-2.0177 -13.227,-1.9056 -27.2386,-5.8288 l 0,-30.4892 q 11.994,5.8288 24.5483,8.7432 12.6665,2.9144 25.6693,2.9144 11.7697,0 17.7106,-3.2507 5.9409,-3.2507 5.9409,-9.6399 0,-5.3805 -4.1474,-7.9586 -4.0353,-2.6903 -16.2534,-4.1475 l -7.0619,-0.8967 q -26.7901,-3.3628 -37.551,-12.4423 -10.7609,-9.0795 -10.7609,-27.5748 0,-19.9525 13.6753,-29.5925 13.6753,-9.64 41.9226,-9.64 11.0972,0 23.3153,1.6814 12.2181,1.6814 26.566,5.2684 z"
       inkscape:export-xdpi="90"
       inkscape:export-ydpi="90" />
    <path
       inkscape:connector-curvature="0"
       id="path4519"
       style="font-style:normal;font-variant:normal;font-weight:bold;font-stretch:normal;font-size:medium;line-height:125%;font-family:sans-serif;-inkscape-font-specification:'sans-serif Bold';letter-spacing:57.39147949px;word-spacing:0px;writing-mode:lr-tb;fill:#808080;fill-opacity:1;stroke:none;stroke-width:1px;stroke-linecap:butt;stroke-linejoin:miter;stroke-opacity:1"
       d="m 1218.3741,1999.7122 40.1292,0 0,125.5439 -40.1292,0 0,-125.5439 z m 0,-48.8724 40.1292,0 0,32.7311 -40.1292,0 0,-32.7311 z"
       inkscape:export-xdpi="90"
       inkscape:export-ydpi="90" />
    <path
       inkscape:connector-curvature="0"
       id="path4521"
       style="font-style:normal;font-variant:normal;font-weight:bold;font-stretch:normal;font-size:medium;line-height:125%;font-family:sans-serif;-inkscape-font-specification:'sans-serif Bold';letter-spacing:57.39147949px;word-spacing:0px;writing-mode:lr-tb;fill:#666666;fill-opacity:1;stroke:none;stroke-width:1px;stroke-linecap:butt;stroke-linejoin:miter;stroke-opacity:1"
       d="m 1398.5071,1964.0668 0,35.6454 41.3623,0 0,28.6958 -41.3623,0 0,53.244 q 0,8.7433 3.4749,11.8819 3.4749,3.0265 13.7874,3.0265 l 20.6251,0 0,28.6957 -34.4125,0 q -23.7637,0 -33.7399,-9.8642 -9.8642,-9.9762 -9.8642,-33.7399 l 0,-53.244 -19.9525,0 0,-28.6958 19.9525,0 0,-35.6454 40.1292,0 z"
       inkscape:export-xdpi="90"
       inkscape:export-ydpi="90" />
    <path
       inkscape:connector-curvature="0"
       id="path4523"
       style="font-style:normal;font-variant:normal;font-weight:bold;font-stretch:normal;font-size:medium;line-height:125%;font-family:sans-serif;-inkscape-font-specification:'sans-serif Bold';letter-spacing:57.39147949px;word-spacing:0px;writing-mode:lr-tb;fill:#4d4d4d;fill-opacity:1;stroke:none;stroke-width:1px;stroke-linecap:butt;stroke-linejoin:miter;stroke-opacity:1"
       d="m 1521.9212,1999.7122 40.1292,0 0,125.5439 -40.1292,0 0,-125.5439 z m 0,-48.8724 40.1292,0 0,32.7311 -40.1292,0 0,-32.7311 z"
       inkscape:export-xdpi="90"
       inkscape:export-ydpi="90" />
    <path
       inkscape:connector-curvature="0"
       id="path4525"
       style="font-style:normal;font-variant:normal;font-weight:bold;font-stretch:normal;font-size:medium;line-height:125%;font-family:sans-serif;-inkscape-font-specification:'sans-serif Bold';letter-spacing:57.39147949px;word-spacing:0px;writing-mode:lr-tb;fill:#333333;fill-opacity:1;stroke:none;stroke-width:1px;stroke-linecap:butt;stroke-linejoin:miter;stroke-opacity:1"
       d="m 1717.9714,2025.3815 q -13.339,0 -20.4009,9.64 -6.9497,9.5278 -6.9497,27.5748 0,18.0469 6.9497,27.6869 7.0619,9.5279 20.4009,9.5279 13.1149,0 20.0646,-9.5279 6.9498,-9.64 6.9498,-27.6869 0,-18.047 -6.9498,-27.5748 -6.9497,-9.64 -20.0646,-9.64 z m 0,-28.6958 q 32.3948,0 50.5538,17.4865 18.2712,17.4865 18.2712,48.4241 0,30.9376 -18.2712,48.424 -18.159,17.4865 -50.5538,17.4865 -32.5069,0 -50.8901,-17.4865 -18.2711,-17.4864 -18.2711,-48.424 0,-30.9376 18.2711,-48.4241 18.3832,-17.4865 50.8901,-17.4865 z"
       inkscape:export-xdpi="90"
       inkscape:export-ydpi="90" />
    <path
       inkscape:connector-curvature="0"
       id="path4527"
       style="font-style:normal;font-variant:normal;font-weight:bold;font-stretch:normal;font-size:medium;line-height:125%;font-family:sans-serif;-inkscape-font-specification:'sans-serif Bold';letter-spacing:57.39147949px;word-spacing:0px;writing-mode:lr-tb;fill:#1a1a1a;fill-opacity:1;stroke:none;stroke-width:1px;stroke-linecap:butt;stroke-linejoin:miter;stroke-opacity:1"
       d="m 1999.6604,2048.8089 0,76.4472 -40.3534,0 0,-12.4423 0,-46.0701 q 0,-16.2534 -0.7846,-22.4185 -0.6726,-6.1652 -2.466,-9.0796 -2.354,-3.9232 -6.3893,-6.053 -4.0354,-2.2418 -9.1916,-2.2418 -12.5544,0 -19.7284,9.752 -7.1739,9.64 -7.1739,26.7902 l 0,61.7631 -40.1292,0 0,-125.5439 40.1292,0 0,18.3833 q 9.0795,-10.9851 19.28,-16.1414 10.2004,-5.2684 22.5306,-5.2684 21.746,0 32.9553,13.3391 11.3213,13.339 11.3213,38.7841 z"
       inkscape:export-xdpi="90"
       inkscape:export-ydpi="90" />
  </g>
</svg>
